<svg xmlns="http://www.w3.org/2000/svg">
  <title>Agent Pulse local interface icon sprite</title>
  <symbol id="home" viewBox="0 0 24 24"><path d="m3 11 9-8 9 8"/><path d="M5 10v10h14V10"/><path d="M9 20v-6h6v6"/></symbol>
  <symbol id="route" viewBox="0 0 24 24"><circle cx="6" cy="19" r="3"/><circle cx="18" cy="5" r="3"/><path d="M6 16V8a3 3 0 0 1 3-3h6"/><path d="m15 14 3 3-3 3"/></symbol>
  <symbol id="clock" viewBox="0 0 24 24"><circle cx="12" cy="12" r="9"/><path d="M12 7v5l3 2"/></symbol>
  <symbol id="sparkles" viewBox="0 0 24 24"><path d="m12 3-1.3 3.7L7 8l3.7 1.3L12 13l1.3-3.7L17 8l-3.7-1.3Z"/><path d="m5 14-.8 2.2L2 17l2.2.8L5 20l.8-2.2L8 17l-2.2-.8Z"/><path d="m19 14-.8 2.2L16 17l2.2.8L19 20l.8-2.2L22 17l-2.2-.8Z"/></symbol>
  <symbol id="menu" viewBox="0 0 24 24"><path d="M4 7h16M4 12h16M4 17h16"/></symbol>
  <symbol id="sun" viewBox="0 0 24 24"><circle cx="12" cy="12" r="4"/><path d="M12 2v2M12 20v2M4.9 4.9l1.4 1.4M17.7 17.7l1.4 1.4M2 12h2M20 12h2M4.9 19.1l1.4-1.4M17.7 6.3l1.4-1.4"/></symbol>
  <symbol id="arrow-right" viewBox="0 0 24 24"><path d="M5 12h14M13 6l6 6-6 6"/></symbol>
  <symbol id="external-link" viewBox="0 0 24 24"><path d="M14 5h5v5M10 14 19 5"/><path d="M19 13v6H5V5h6"/></symbol>
  <symbol id="search" viewBox="0 0 24 24"><circle cx="11" cy="11" r="7"/><path d="m20 20-4-4"/></symbol>
  <symbol id="x" viewBox="0 0 24 24"><path d="m6 6 12 12M18 6 6 18"/></symbol>
  <symbol id="github" viewBox="0 0 24 24"><path d="M15 22v-4a4.8 4.8 0 0 0-1-3.5c3.3-.4 6.8-1.6 6.8-7.4A5.8 5.8 0 0 0 19.3 3 5.4 5.4 0 0 0 19.1.1S17.9-.3 15 1.6a13.4 13.4 0 0 0-7 0C5.1-.3 3.9.1 3.9.1A5.4 5.4 0 0 0 3.7 3a5.8 5.8 0 0 0-1.5 4.1c0 5.8 3.5 7 6.8 7.4A4.8 4.8 0 0 0 8 18v4"/><path d="M8 19c-3 .9-3-1.5-4-2"/></symbol>
  <symbol id="x-social" viewBox="0 0 24 24"><path d="M5 4l14 16M19 4 5 20"/></symbol>
  <symbol id="weibo" viewBox="0 0 24 24"><path d="M20 11.5c0 4.1-4.2 7.5-9.4 7.5C6.4 19 3 16.8 3 13.7c0-2.2 1.8-4.2 4.6-5.2"/><path d="M15.3 8.2c2.9.7 4.7 1.9 4.7 3.3"/><path d="M14.8 4c3.4.2 5.8 2.3 6.2 5.2"/><ellipse cx="10.4" cy="13.4" rx="3.2" ry="2.3"/><circle cx="9.6" cy="12.8" r=".7"/></symbol>
  <symbol id="mail" viewBox="0 0 24 24"><rect x="3" y="5" width="18" height="14" rx="2"/><path d="m4 7 8 6 8-6"/></symbol>
  <symbol id="star" viewBox="0 0 24 24"><path d="m12 3 2.7 5.5 6.1.9-4.4 4.3 1 6.1-5.4-2.9-5.4 2.9 1-6.1-4.4-4.3 6.1-.9Z"/></symbol>
  <symbol id="users" viewBox="0 0 24 24"><path d="M16 21v-2a4 4 0 0 0-4-4H6a4 4 0 0 0-4 4v2"/><circle cx="9" cy="7" r="4"/><path d="M22 21v-2a4 4 0 0 0-3-3.9M16 3.1a4 4 0 0 1 0 7.8"/></symbol>
  <symbol id="box" viewBox="0 0 24 24"><path d="m21 8-9 5-9-5 9-5Z"/><path d="m3 8 9 5v9l-9-5ZM21 8l-9 5v9l9-5Z"/></symbol>
  <symbol id="gauge" viewBox="0 0 24 24"><path d="M20.4 15a9 9 0 1 0-16.8 0"/><path d="m12 12 4-4"/><path d="M4 19h16"/></symbol>
  <symbol id="chevron-down" viewBox="0 0 24 24"><path d="m6 9 6 6 6-6"/></symbol>
  <symbol id="check" viewBox="0 0 24 24"><path d="m5 12 4 4L19 6"/></symbol>
  <symbol id="git-pull-request" viewBox="0 0 24 24"><circle cx="6" cy="5" r="3"/><circle cx="18" cy="19" r="3"/><path d="M6 8v13M18 16V8a3 3 0 0 0-3-3h-3"/><path d="m15 2-3 3 3 3"/></symbol>
</svg>
